<mxfile host="app.diagrams.net" modified="2022-06-22T06:34:25.719Z" agent="5.0 (Windows NT 10.0; Win64; x64) AppleWebKit/537.36 (KHTML, like Gecko) Chrome/102.0.0.0 Safari/537.36" etag="lYOlXsy46OHfBDGOmeIJ" version="20.0.1" type="github">
  <diagram id="C5RBs43oDa-KdzZeNtuy" name="Page-1">
    <mxGraphModel dx="1102" dy="582" grid="1" gridSize="10" guides="1" tooltips="1" connect="1" arrows="1" fold="1" page="1" pageScale="1" pageWidth="827" pageHeight="1169" math="0" shadow="0">
      <root>
        <mxCell id="WIyWlLk6GJQsqaUBKTNV-0" />
        <mxCell id="WIyWlLk6GJQsqaUBKTNV-1" parent="WIyWlLk6GJQsqaUBKTNV-0" />
        <mxCell id="AE640EGFA2rVZcZXzUvn-4" value="" style="edgeStyle=orthogonalEdgeStyle;rounded=0;orthogonalLoop=1;jettySize=auto;html=1;" edge="1" parent="WIyWlLk6GJQsqaUBKTNV-1" source="WIyWlLk6GJQsqaUBKTNV-3" target="AE640EGFA2rVZcZXzUvn-3">
          <mxGeometry relative="1" as="geometry" />
        </mxCell>
        <mxCell id="WIyWlLk6GJQsqaUBKTNV-3" value="generate random&lt;br&gt;word" style="rounded=1;whiteSpace=wrap;html=1;fontSize=12;glass=0;strokeWidth=1;shadow=0;" parent="WIyWlLk6GJQsqaUBKTNV-1" vertex="1">
          <mxGeometry x="320" y="90" width="120" height="40" as="geometry" />
        </mxCell>
        <mxCell id="AE640EGFA2rVZcZXzUvn-2" value="" style="edgeStyle=orthogonalEdgeStyle;rounded=0;orthogonalLoop=1;jettySize=auto;html=1;" edge="1" parent="WIyWlLk6GJQsqaUBKTNV-1" source="AE640EGFA2rVZcZXzUvn-0" target="WIyWlLk6GJQsqaUBKTNV-3">
          <mxGeometry relative="1" as="geometry" />
        </mxCell>
        <mxCell id="AE640EGFA2rVZcZXzUvn-0" value="start" style="whiteSpace=wrap;html=1;rounded=1;glass=0;strokeWidth=1;shadow=0;" vertex="1" parent="WIyWlLk6GJQsqaUBKTNV-1">
          <mxGeometry x="320" y="20" width="120" height="40" as="geometry" />
        </mxCell>
        <mxCell id="AE640EGFA2rVZcZXzUvn-6" value="" style="edgeStyle=orthogonalEdgeStyle;rounded=0;orthogonalLoop=1;jettySize=auto;html=1;" edge="1" parent="WIyWlLk6GJQsqaUBKTNV-1" source="AE640EGFA2rVZcZXzUvn-3" target="AE640EGFA2rVZcZXzUvn-5">
          <mxGeometry relative="1" as="geometry" />
        </mxCell>
        <mxCell id="AE640EGFA2rVZcZXzUvn-3" value="generate aas many blanks as letters in word" style="whiteSpace=wrap;html=1;rounded=1;glass=0;strokeWidth=1;shadow=0;" vertex="1" parent="WIyWlLk6GJQsqaUBKTNV-1">
          <mxGeometry x="305" y="160" width="150" height="40" as="geometry" />
        </mxCell>
        <mxCell id="AE640EGFA2rVZcZXzUvn-8" value="" style="edgeStyle=orthogonalEdgeStyle;rounded=0;orthogonalLoop=1;jettySize=auto;html=1;" edge="1" parent="WIyWlLk6GJQsqaUBKTNV-1" source="AE640EGFA2rVZcZXzUvn-5" target="AE640EGFA2rVZcZXzUvn-7">
          <mxGeometry relative="1" as="geometry" />
        </mxCell>
        <mxCell id="AE640EGFA2rVZcZXzUvn-5" value="ask the user to guess a letter" style="whiteSpace=wrap;html=1;rounded=1;glass=0;strokeWidth=1;shadow=0;" vertex="1" parent="WIyWlLk6GJQsqaUBKTNV-1">
          <mxGeometry x="320" y="230" width="120" height="40" as="geometry" />
        </mxCell>
        <mxCell id="AE640EGFA2rVZcZXzUvn-10" value="" style="edgeStyle=orthogonalEdgeStyle;rounded=0;orthogonalLoop=1;jettySize=auto;html=1;" edge="1" parent="WIyWlLk6GJQsqaUBKTNV-1" source="AE640EGFA2rVZcZXzUvn-7" target="AE640EGFA2rVZcZXzUvn-9">
          <mxGeometry relative="1" as="geometry" />
        </mxCell>
        <mxCell id="AE640EGFA2rVZcZXzUvn-14" value="" style="edgeStyle=orthogonalEdgeStyle;rounded=0;orthogonalLoop=1;jettySize=auto;html=1;" edge="1" parent="WIyWlLk6GJQsqaUBKTNV-1" source="AE640EGFA2rVZcZXzUvn-7" target="AE640EGFA2rVZcZXzUvn-13">
          <mxGeometry relative="1" as="geometry" />
        </mxCell>
        <mxCell id="AE640EGFA2rVZcZXzUvn-7" value="Is the guessed&lt;br&gt;&amp;nbsp;letter in the word" style="rhombus;whiteSpace=wrap;html=1;rounded=1;glass=0;strokeWidth=1;shadow=0;" vertex="1" parent="WIyWlLk6GJQsqaUBKTNV-1">
          <mxGeometry x="300" y="310" width="160" height="100" as="geometry" />
        </mxCell>
        <mxCell id="AE640EGFA2rVZcZXzUvn-12" value="" style="edgeStyle=orthogonalEdgeStyle;rounded=0;orthogonalLoop=1;jettySize=auto;html=1;" edge="1" parent="WIyWlLk6GJQsqaUBKTNV-1" source="AE640EGFA2rVZcZXzUvn-9" target="AE640EGFA2rVZcZXzUvn-11">
          <mxGeometry relative="1" as="geometry" />
        </mxCell>
        <mxCell id="AE640EGFA2rVZcZXzUvn-9" value="lose life" style="whiteSpace=wrap;html=1;rounded=1;glass=0;strokeWidth=1;shadow=0;" vertex="1" parent="WIyWlLk6GJQsqaUBKTNV-1">
          <mxGeometry x="510" y="440" width="110" height="50" as="geometry" />
        </mxCell>
        <mxCell id="AE640EGFA2rVZcZXzUvn-19" style="edgeStyle=orthogonalEdgeStyle;rounded=0;orthogonalLoop=1;jettySize=auto;html=1;entryX=1;entryY=0.5;entryDx=0;entryDy=0;" edge="1" parent="WIyWlLk6GJQsqaUBKTNV-1" source="AE640EGFA2rVZcZXzUvn-11" target="AE640EGFA2rVZcZXzUvn-5">
          <mxGeometry relative="1" as="geometry">
            <mxPoint x="700" y="250" as="targetPoint" />
            <Array as="points">
              <mxPoint x="720" y="600" />
              <mxPoint x="720" y="250" />
            </Array>
          </mxGeometry>
        </mxCell>
        <mxCell id="AE640EGFA2rVZcZXzUvn-21" style="edgeStyle=orthogonalEdgeStyle;rounded=0;orthogonalLoop=1;jettySize=auto;html=1;fontSize=70;" edge="1" parent="WIyWlLk6GJQsqaUBKTNV-1" source="AE640EGFA2rVZcZXzUvn-11">
          <mxGeometry relative="1" as="geometry">
            <mxPoint x="370" y="810" as="targetPoint" />
            <Array as="points">
              <mxPoint x="565" y="730" />
              <mxPoint x="370" y="730" />
            </Array>
          </mxGeometry>
        </mxCell>
        <mxCell id="AE640EGFA2rVZcZXzUvn-11" value="Have they run&lt;br&gt;out of lives?" style="rhombus;whiteSpace=wrap;html=1;rounded=1;glass=0;strokeWidth=1;shadow=0;" vertex="1" parent="WIyWlLk6GJQsqaUBKTNV-1">
          <mxGeometry x="485" y="560" width="160" height="80" as="geometry" />
        </mxCell>
        <mxCell id="AE640EGFA2rVZcZXzUvn-17" value="" style="edgeStyle=orthogonalEdgeStyle;rounded=0;orthogonalLoop=1;jettySize=auto;html=1;" edge="1" parent="WIyWlLk6GJQsqaUBKTNV-1" source="AE640EGFA2rVZcZXzUvn-13" target="AE640EGFA2rVZcZXzUvn-16">
          <mxGeometry relative="1" as="geometry" />
        </mxCell>
        <mxCell id="AE640EGFA2rVZcZXzUvn-13" value="Replace the blank&lt;br&gt;with the letter" style="whiteSpace=wrap;html=1;rounded=1;glass=0;strokeWidth=1;shadow=0;" vertex="1" parent="WIyWlLk6GJQsqaUBKTNV-1">
          <mxGeometry x="130" y="440" width="130" height="50" as="geometry" />
        </mxCell>
        <mxCell id="AE640EGFA2rVZcZXzUvn-18" style="edgeStyle=orthogonalEdgeStyle;rounded=0;orthogonalLoop=1;jettySize=auto;html=1;exitX=0;exitY=0.5;exitDx=0;exitDy=0;" edge="1" parent="WIyWlLk6GJQsqaUBKTNV-1" source="AE640EGFA2rVZcZXzUvn-16">
          <mxGeometry relative="1" as="geometry">
            <mxPoint x="320" y="250" as="targetPoint" />
            <Array as="points">
              <mxPoint x="80" y="600" />
              <mxPoint x="80" y="250" />
            </Array>
          </mxGeometry>
        </mxCell>
        <mxCell id="AE640EGFA2rVZcZXzUvn-22" style="edgeStyle=orthogonalEdgeStyle;rounded=0;orthogonalLoop=1;jettySize=auto;html=1;fontSize=70;" edge="1" parent="WIyWlLk6GJQsqaUBKTNV-1" source="AE640EGFA2rVZcZXzUvn-16" target="AE640EGFA2rVZcZXzUvn-23">
          <mxGeometry relative="1" as="geometry">
            <mxPoint x="370" y="810" as="targetPoint" />
            <Array as="points">
              <mxPoint x="195" y="730" />
            </Array>
          </mxGeometry>
        </mxCell>
        <mxCell id="AE640EGFA2rVZcZXzUvn-16" value="Are all the&lt;br&gt;blanks filled?" style="rhombus;whiteSpace=wrap;html=1;rounded=1;glass=0;strokeWidth=1;shadow=0;" vertex="1" parent="WIyWlLk6GJQsqaUBKTNV-1">
          <mxGeometry x="132.5" y="560" width="125" height="80" as="geometry" />
        </mxCell>
        <mxCell id="AE640EGFA2rVZcZXzUvn-20" value="&lt;font style=&quot;font-size: 70px;&quot;&gt;-----&lt;/font&gt;" style="text;html=1;align=center;verticalAlign=middle;resizable=0;points=[];autosize=1;strokeColor=none;fillColor=none;" vertex="1" parent="WIyWlLk6GJQsqaUBKTNV-1">
          <mxGeometry x="560" y="150" width="130" height="40" as="geometry" />
        </mxCell>
        <mxCell id="AE640EGFA2rVZcZXzUvn-23" value="&lt;span style=&quot;font-size: 14px;&quot;&gt;Game Over&lt;br style=&quot;font-size: 14px;&quot;&gt;&lt;/span&gt;" style="rounded=1;whiteSpace=wrap;html=1;fontSize=14;fillColor=#d5e8d4;strokeColor=#82b366;fontFamily=Times New Roman;horizontal=1;" vertex="1" parent="WIyWlLk6GJQsqaUBKTNV-1">
          <mxGeometry x="310" y="810" width="120" height="60" as="geometry" />
        </mxCell>
      </root>
    </mxGraphModel>
  </diagram>
</mxfile>
